<svg version="1.1" id="Layer_1" xmlns="http://www.w3.org/2000/svg" xmlns:xlink="http://www.w3.org/1999/xlink" x="0px" y="0px"
     width="100%" viewBox="223 194 90 90" enable-background="new 230 190 90 90" xml:space="preserve">
<path fill="#3DCFB6" opacity="1.000000" stroke="none"
      d="M268.007324,211.589661
	C275.038208,213.071548 280.400879,216.207123 282.070099,223.202271
	C283.949524,231.078369 282.321167,238.078766 275.237244,243.135101
	C275.648163,243.683228 275.840729,244.220917 276.199524,244.377274
	C283.811676,247.695099 287.427032,253.528549 286.832916,261.758423
	C286.138519,271.376251 280.770172,277.533905 271.636993,279.912994
	C261.199951,282.631653 250.452011,281.007538 239.838623,281.227631
	C237.363068,281.278931 236.888718,279.483124 236.888550,277.480682
	C236.886765,256.511292 236.890976,235.541901 236.906433,214.572510
	C236.907867,212.636368 237.177292,210.675949 239.716644,210.740707
	C249.006897,210.977570 258.340271,209.753693 268.007324,211.589661
M272.069244,251.304672
	C265.134552,247.437531 257.553955,248.380905 250.105118,248.368881
	C247.966263,248.365433 247.224304,249.679489 247.224472,251.615829
	C247.225006,257.939453 247.224991,264.263092 247.223648,270.586731
	C247.223221,272.625977 248.212936,273.626923 250.278320,273.646149
	C256.424774,273.703308 262.579437,274.034058 268.523254,271.863525
	C277.911346,268.435181 279.962097,258.651459 272.069244,251.304672
M255.346481,240.659088
	C259.023010,240.703033 262.644226,240.200027 266.075928,238.932053
	C271.190582,237.042236 273.041718,233.737244 272.793243,228.101517
	C272.572388,223.091400 269.439331,220.787476 265.168823,219.520966
	C260.661560,218.184235 256.003052,218.398911 251.361847,218.297256
	C247.981934,218.223221 247.029663,219.805832 247.141815,222.843735
	C247.270157,226.320343 247.182693,229.805008 247.184479,233.286179
	C247.188217,240.611862 247.187012,240.611862 255.346481,240.659088
z"/>
  <path fill="#3DCFB6" opacity="1.000000" stroke="none"
        d="M246.000092,194.754974
	C260.987671,194.749680 275.476715,194.855865 289.961975,194.670074
	C294.076935,194.617310 295.461975,196.005142 295.452301,200.131760
	C295.442688,204.235107 293.734955,205.202896 290.030823,205.174591
	C272.713257,205.042328 255.392105,205.240433 238.077133,204.987289
	C233.393509,204.918793 231.969147,206.514832 232.172195,211.027481
	C232.478775,217.841202 232.198364,224.679474 232.283615,231.505859
	C232.321396,234.531891 231.346161,236.177734 228.001984,236.170944
	C224.769379,236.164383 223.614746,234.791443 223.644409,231.632660
	C223.746048,220.809586 223.747345,209.984314 223.639679,199.161346
	C223.608002,195.977219 224.777054,194.640549 228.015961,194.716751
	C233.841080,194.853790 239.671768,194.755585 246.000092,194.754974
z"/>
</svg>
